<?xml version="1.0" encoding="iso-8859-1"?>
<!-- Uploaded to: SVG Repo, www.svgrepo.com, Generator: SVG Repo Mixer Tools -->
<!DOCTYPE svg PUBLIC "-//W3C//DTD SVG 1.1//EN" "http://www.w3.org/Graphics/SVG/1.1/DTD/svg11.dtd">
<svg fill="#000000" version="1.1" id="Capa_1" xmlns="http://www.w3.org/2000/svg" xmlns:xlink="http://www.w3.org/1999/xlink" 
	 width="800px" height="800px" viewBox="0 0 885.389 885.389"
	 xml:space="preserve">
<g>
	<path d="M560.988,212.188c-179.2,0-324.4,145.2-324.4,324.4s145.2,324.4,324.4,324.4c179.2,0,324.4-145.2,324.4-324.4
		S740.188,212.188,560.988,212.188z M745.789,570.188c0,11-9,20-20,20h-91.2c-11,0-20,9-20,20v91.2c0,11-9,20-20,20h-67.2
		c-11,0-20-9-20-20v-91.2c0-11-9-20-20-20H386.188c-5.5,0-10-4.5-10-10v-77.199c0-11,9-20,20-20h91.201c11,0,20-9,20-20v-91.2
		c0-11,9-20,20-20h67.2c11,0,20,9,20,20v91.2c0,11,9,20,20,20h91.2c11,0,20,9,20,20V570.188z"/>
	<path d="M153.588,416.489c5.6,0.1,10.7-3.301,12.8-8.4l60.7-145.8c2-4.9,5.9-8.8,10.8-10.8l145.8-60.7c5.2-2.2,8.5-7.2,8.4-12.8
		c-0.101-5.6-3.601-10.6-8.8-12.6l-364.4-140.1c-5.1-1.9-10.8-0.7-14.6,3.1l-0.3,0.3c-3.8,3.8-5,9.6-3.1,14.6l140.1,364.399
		C142.988,412.989,147.988,416.489,153.588,416.489z"/>
</g>
</svg>