<?xml version="1.0" encoding="iso-8859-1"?>
<!-- Uploaded to: SVG Repo, www.svgrepo.com, Generator: SVG Repo Mixer Tools -->
<!DOCTYPE svg PUBLIC "-//W3C//DTD SVG 1.1//EN" "http://www.w3.org/Graphics/SVG/1.1/DTD/svg11.dtd">
<svg fill="#000000" version="1.1" id="Capa_1" xmlns="http://www.w3.org/2000/svg" xmlns:xlink="http://www.w3.org/1999/xlink" 
	 width="800px" height="800px" viewBox="0 0 540.875 540.875"
	 xml:space="preserve">
<g>
	<path d="M9.061,130.548c0,23.973,21.2,43.404,47.344,43.404h80.87c13.072,0,23.677-10.595,23.677-23.677v-39.455
		c0-13.072-10.595-23.677-23.677-23.677h-80.87C30.26,87.153,9.061,106.584,9.061,130.548z"/>
	<path d="M346.387,110.821c0-13.072-10.596-23.677-23.676-23.677H218.164c-13.072,0-23.677,10.595-23.677,23.677v39.455
		c0,13.072,10.595,23.677,23.677,23.677h104.547c13.072,0,23.676-10.595,23.676-23.677V110.821z"/>
	<path d="M484.469,87.153H403.6c-13.072,0-23.678,10.596-23.678,23.677v39.455c0,13.072,10.596,23.677,23.678,23.677h80.869
		c26.145,0,47.346-19.431,47.346-43.404S510.613,87.153,484.469,87.153z"/>
	<path d="M56.404,296.257h80.87c13.072,0,23.677-10.596,23.677-23.677v-39.445c0-13.072-10.595-23.677-23.677-23.677h-80.87
		c-26.144,0-47.344,19.431-47.344,43.395C9.061,276.825,30.26,296.257,56.404,296.257z"/>
	<path d="M346.387,233.135c0-13.072-10.596-23.677-23.676-23.677H218.164c-13.072,0-23.677,10.595-23.677,23.677v39.445
		c0,13.071,10.595,23.677,23.677,23.677h104.547c13.072,0,23.676-10.596,23.676-23.677V233.135z"/>
	<path d="M484.469,209.468H403.6c-13.072,0-23.678,10.595-23.678,23.676v39.445c0,13.072,10.596,23.678,23.678,23.678h80.869
		c26.145,0,47.346-19.422,47.346-43.395S510.613,209.468,484.469,209.468z"/>
	<path d="M56.404,418.562h80.87c13.072,0,23.677-10.596,23.677-23.677v-39.445c0-13.072-10.595-23.677-23.677-23.677h-80.87
		c-26.144,0-47.344,19.421-47.344,43.385C9.061,399.13,30.26,418.562,56.404,418.562z"/>
	<path d="M346.387,355.439c0-13.072-10.596-23.677-23.676-23.677H218.164c-13.072,0-23.677,10.595-23.677,23.677v39.445
		c0,13.071,10.595,23.677,23.677,23.677h104.547c13.072,0,23.676-10.596,23.676-23.677V355.439z"/>
	<path d="M484.469,331.771H403.6c-13.072,0-23.678,10.596-23.678,23.677v39.445c0,13.072,10.596,23.677,23.678,23.677h80.869
		c26.145,0,47.346-19.431,47.346-43.403C531.814,351.193,510.613,331.771,484.469,331.771z"/>
	<path d="M56.404,540.875h80.87c13.072,0,23.677-10.604,23.677-23.677v-39.455c0-13.071-10.595-23.667-23.677-23.667h-80.87
		c-26.144,0-47.344,19.431-47.344,43.395C9.061,521.444,30.26,540.875,56.404,540.875z"/>
	<path d="M322.711,454.076H218.164c-13.072,0-23.677,10.596-23.677,23.667v39.455c0,13.062,10.595,23.677,23.677,23.677h104.547
		c13.072,0,23.676-10.604,23.676-23.677v-39.455C346.387,464.672,335.783,454.076,322.711,454.076z"/>
	<path d="M484.469,454.076H403.6c-13.072,0-23.678,10.596-23.678,23.667v39.455c0,13.062,10.596,23.677,23.678,23.677h80.869
		c26.145,0,47.346-19.431,47.346-43.404C531.814,473.507,510.613,454.076,484.469,454.076z"/>
	<path d="M341.949,37.658L277.402,1.799c-4.207-2.314-9.285-2.41-13.549-0.201l-69.328,35.859
		c-7.038,3.634-9.792,12.288-6.158,19.326c2.553,4.934,7.564,7.755,12.756,7.755c2.219,0,4.466-0.516,6.579-1.606l62.491-32.321
		l57.825,32.121c6.934,3.834,15.664,1.348,19.508-5.575C351.369,50.233,348.873,41.502,341.949,37.658z"/>
</g>
</svg>