<svg xmlns="http://www.w3.org/2000/svg" xmlns:xlink="http://www.w3.org/1999/xlink" version="1.1" width="256" height="256" viewBox="0 0 256 256" xml:space="preserve">

<defs>
</defs>
<g style="stroke: none; stroke-width: 0; stroke-dasharray: none; stroke-linecap: butt; stroke-linejoin: miter; stroke-miterlimit: 10; fill: none; fill-rule: nonzero; opacity: 1;" transform="translate(1.4065934065934016 1.4065934065934016) scale(2.81 2.81)" >
	<circle cx="45" cy="45" r="45" style="stroke: none; stroke-width: 1; stroke-dasharray: none; stroke-linecap: butt; stroke-linejoin: miter; stroke-miterlimit: 10; fill: rgb(32,196,203); fill-rule: nonzero; opacity: 1;" transform="  matrix(1 0 0 1 0 0) "/>
	<path d="M 65.622 34.364 H 18.091 c -1.983 0 -3.591 -1.608 -3.591 -3.591 v -5.005 c 0 -1.983 1.608 -3.591 3.591 -3.591 h 47.531 c 1.983 0 3.591 1.608 3.591 3.591 v 5.005 C 69.212 32.756 67.605 34.364 65.622 34.364 z" style="stroke: none; stroke-width: 1; stroke-dasharray: none; stroke-linecap: butt; stroke-linejoin: miter; stroke-miterlimit: 10; fill: rgb(27,167,173); fill-rule: nonzero; opacity: 1;" transform=" matrix(1 0 0 1 0 0) " stroke-linecap="round" />
	<path d="M 59.559 23.229 H 24.153 c -2.118 0 -3.835 1.717 -3.835 3.835 v 46.252 c 0 2.118 1.717 3.835 3.835 3.835 h 35.406 c 2.118 0 3.835 -1.717 3.835 -3.835 V 27.064 C 63.394 24.946 61.677 23.229 59.559 23.229 z M 34.184 67.084 c 0 1.808 -1.48 3.288 -3.288 3.288 c -1.808 0 -3.288 -1.48 -3.288 -3.288 v -25.23 c 0 -1.808 1.48 -3.288 3.288 -3.288 c 1.808 0 3.288 1.48 3.288 3.288 V 67.084 z M 45.144 67.084 c 0 1.808 -1.48 3.288 -3.288 3.288 s -3.288 -1.48 -3.288 -3.288 v -25.23 c 0 -1.808 1.48 -3.288 3.288 -3.288 s 3.288 1.48 3.288 3.288 V 67.084 z M 56.104 67.084 c 0 1.808 -1.48 3.288 -3.288 3.288 s -3.288 -1.48 -3.288 -3.288 v -25.23 c 0 -1.808 1.48 -3.288 3.288 -3.288 s 3.288 1.48 3.288 3.288 V 67.084 z" style="stroke: none; stroke-width: 1; stroke-dasharray: none; stroke-linecap: butt; stroke-linejoin: miter; stroke-miterlimit: 10; fill: rgb(27,167,173); fill-rule: nonzero; opacity: 1;" transform=" matrix(1 0 0 1 0 0) " stroke-linecap="round" />
	<path d="M 68.909 31.076 H 21.378 c -1.983 0 -3.591 -1.608 -3.591 -3.591 V 22.48 c 0 -1.983 1.608 -3.591 3.591 -3.591 h 47.531 c 1.983 0 3.591 1.608 3.591 3.591 v 5.005 C 72.5 29.468 70.892 31.076 68.909 31.076 z" style="stroke: none; stroke-width: 1; stroke-dasharray: none; stroke-linecap: butt; stroke-linejoin: miter; stroke-miterlimit: 10; fill: rgb(255,255,255); fill-rule: nonzero; opacity: 1;" transform=" matrix(1 0 0 1 0 0) " stroke-linecap="round" />
	<path d="M 62.847 19.941 H 27.441 c -2.118 0 -3.835 1.717 -3.835 3.835 v 46.252 c 0 2.118 1.717 3.835 3.835 3.835 h 35.406 c 2.118 0 3.835 -1.717 3.835 -3.835 V 23.776 C 66.681 21.658 64.965 19.941 62.847 19.941 z M 37.472 63.796 c 0 1.808 -1.48 3.288 -3.288 3.288 s -3.288 -1.48 -3.288 -3.288 v -25.23 c 0 -1.808 1.48 -3.288 3.288 -3.288 s 3.288 1.48 3.288 3.288 V 63.796 z M 48.432 63.796 c 0 1.808 -1.48 3.288 -3.288 3.288 s -3.288 -1.48 -3.288 -3.288 v -25.23 c 0 -1.808 1.48 -3.288 3.288 -3.288 s 3.288 1.48 3.288 3.288 V 63.796 z M 59.392 63.796 c 0 1.808 -1.48 3.288 -3.288 3.288 s -3.288 -1.48 -3.288 -3.288 v -25.23 c 0 -1.808 1.48 -3.288 3.288 -3.288 s 3.288 1.48 3.288 3.288 V 63.796 z" style="stroke: none; stroke-width: 1; stroke-dasharray: none; stroke-linecap: butt; stroke-linejoin: miter; stroke-miterlimit: 10; fill: rgb(255,255,255); fill-rule: nonzero; opacity: 1;" transform=" matrix(1 0 0 1 0 0) " stroke-linecap="round" />
</g>
</svg>